<svg class="diagram-root" style="background: #f5f6f6" xmlns="http://www.w3.org/2000/svg" xmlns:xlink="http://www.w3.org/1999/xlink"><style>.diagram-root { font-family: "Helvetica Neue", sans-serif; font-size: 12px; } .t { overflow: visible; } .t-bg { y: 40; fill: #fff;   } .th { fill: #005aa0;   } .tht { fill: #fff; font-size: 14px;  } .tf { fill: #323c46; overflow: visible; } .tf.pk { fill: #005aa0; font-weight: bold; } .tf.fk { font-weight: bold; } .ty { fill: #adb1b5; font-weight: normal; text-anchor: end; } .r { fill: transparent; stroke: #c3c3c3; stroke-width: 1; } .l { stroke: 1; } .i { fill: #c2c7ce; stroke: #c2c7ce; } .i.ix { fill: #afb3b6; stroke: #000; } .fa { fill: transparent; overflow: visible; } .fa .bg.hover { fill: #f7f7f7; } .c { cy: 12; r: 4; stroke: #d2d2dc; fill: #d2d2dc; } .hr { fill: transparent; stroke: #323c46; stroke-opacity: 0.035; stroke-width: 13; } .dc { stroke: #fa5a3c; fill: #fa5a3c; } .x { stroke: white; stroke-width: 1; } .hl .th { fill: #1b9bff; } .hl .tht {  } .fhl .bg { fill: #e7f4ff; } .fhls .bg {  } .r.hl { stroke: #1b9bff; } .dim { opacity: 0.25; }</style><g class="drawing-wrapper" transform="translate(-148.11777777777786, 24.33444444444444) scale(1,1)"><g class="rs"><path d="M 342.18 87.67 m -1, 0 a 1,1 0 1,0 2,0 a 1,1 0 1,0 -2,0 M 342.18 87.67 m -0.5, 0 a 0.5,0.5 0 1,0 1,0 a 0.5,0.5 0 1,0 -1,0  M342.18 87.67 L342.18 87.67 354.18 87.67 M 342.18 93.67 m -1, 0 a 1,1 0 1,0 2,0 a 1,1 0 1,0 -2,0 M 342.18 93.67 m -0.5, 0 a 0.5,0.5 0 1,0 1,0 a 0.5,0.5 0 1,0 -1,0  M342.18 93.67 L342.18 93.67 349.18 87.67 342.18 81.67 M 342.18 81.67 m -1, 0 a 1,1 0 1,0 2,0 a 1,1 0 1,0 -2,0 M 342.18 81.67 m -0.5, 0 a 0.5,0.5 0 1,0 1,0 a 0.5,0.5 0 1,0 -1,0  M354.18 87.67 Q 375.7 87.67, 397.21 185.12 T 440.23 282.56 M 452.23 282.56 m -1, 0 a 1,1 0 1,0 2,0 a 1,1 0 1,0 -2,0 M 452.23 282.56 m -0.5, 0 a 0.5,0.5 0 1,0 1,0 a 0.5,0.5 0 1,0 -1,0  M452.23 282.56 L452.23 282.56 440.23 282.56 M446.23 288.56 L446.23 288.56 446.23 276.56" id="h2164102494" class="r"></path><path d="M 460.56 88.66 m -1, 0 a 1,1 0 1,0 2,0 a 1,1 0 1,0 -2,0 M 460.56 88.66 m -0.5, 0 a 0.5,0.5 0 1,0 1,0 a 0.5,0.5 0 1,0 -1,0  M460.56 88.66 L460.56 88.66 448.56 88.66 M 460.56 94.66 m -1, 0 a 1,1 0 1,0 2,0 a 1,1 0 1,0 -2,0 M 460.56 94.66 m -0.5, 0 a 0.5,0.5 0 1,0 1,0 a 0.5,0.5 0 1,0 -1,0  M460.56 94.66 L460.56 94.66 453.56 88.66 460.56 82.66 M 460.56 82.66 m -1, 0 a 1,1 0 1,0 2,0 a 1,1 0 1,0 -2,0 M 460.56 82.66 m -0.5, 0 a 0.5,0.5 0 1,0 1,0 a 0.5,0.5 0 1,0 -1,0  M448.56 88.66 C 385.232 88.66, 390.23 282.56, 440.23 282.56 M 452.23 282.56 m -1, 0 a 1,1 0 1,0 2,0 a 1,1 0 1,0 -2,0 M 452.23 282.56 m -0.5, 0 a 0.5,0.5 0 1,0 1,0 a 0.5,0.5 0 1,0 -1,0  M452.23 282.56 L452.23 282.56 440.23 282.56 M446.23 288.56 L446.23 288.56 446.23 276.56" id="h3773757052" class="r"></path><path d="M 717.89 89.22 m -1, 0 a 1,1 0 1,0 2,0 a 1,1 0 1,0 -2,0 M 717.89 89.22 m -0.5, 0 a 0.5,0.5 0 1,0 1,0 a 0.5,0.5 0 1,0 -1,0  M717.89 89.22 L717.89 89.22 705.89 89.22 M 717.89 95.22 m -1, 0 a 1,1 0 1,0 2,0 a 1,1 0 1,0 -2,0 M 717.89 95.22 m -0.5, 0 a 0.5,0.5 0 1,0 1,0 a 0.5,0.5 0 1,0 -1,0  M717.89 95.22 L717.89 95.22 710.89 89.22 717.89 83.22 M 717.89 83.22 m -1, 0 a 1,1 0 1,0 2,0 a 1,1 0 1,0 -2,0 M 717.89 83.22 m -0.5, 0 a 0.5,0.5 0 1,0 1,0 a 0.5,0.5 0 1,0 -1,0  M705.89 89.22 Q 685.66 89.22, 665.42 185.89 T 624.94 282.56 M 612.94 282.56 m -1, 0 a 1,1 0 1,0 2,0 a 1,1 0 1,0 -2,0 M 612.94 282.56 m -0.5, 0 a 0.5,0.5 0 1,0 1,0 a 0.5,0.5 0 1,0 -1,0  M612.94 282.56 L612.94 282.56 624.94 282.56 M618.94 288.56 L618.94 288.56 618.94 276.56" id="h3215850366" class="r"></path><path d="M 463.23 552.3299999999999 m -1, 0 a 1,1 0 1,0 2,0 a 1,1 0 1,0 -2,0 M 463.23 552.3299999999999 m -0.5, 0 a 0.5,0.5 0 1,0 1,0 a 0.5,0.5 0 1,0 -1,0  M463.23 552.3299999999999 L463.23 552.3299999999999 451.23 552.3299999999999 M 463.23 558.3299999999999 m -1, 0 a 1,1 0 1,0 2,0 a 1,1 0 1,0 -2,0 M 463.23 558.3299999999999 m -0.5, 0 a 0.5,0.5 0 1,0 1,0 a 0.5,0.5 0 1,0 -1,0  M463.23 558.3299999999999 L463.23 558.3299999999999 456.23 552.3299999999999 463.23 546.3299999999999 M 463.23 546.3299999999999 m -1, 0 a 1,1 0 1,0 2,0 a 1,1 0 1,0 -2,0 M 463.23 546.3299999999999 m -0.5, 0 a 0.5,0.5 0 1,0 1,0 a 0.5,0.5 0 1,0 -1,0  M451.23 552.3299999999999 C 383.63 552.3299999999999, 390.23 282.56, 440.23 282.56 M 452.23 282.56 m -1, 0 a 1,1 0 1,0 2,0 a 1,1 0 1,0 -2,0 M 452.23 282.56 m -0.5, 0 a 0.5,0.5 0 1,0 1,0 a 0.5,0.5 0 1,0 -1,0  M452.23 282.56 L452.23 282.56 440.23 282.56 M446.23 288.56 L446.23 288.56 446.23 276.56" id="h4072571855" class="r"></path></g><g class="hrs"></g><g class="ts"><svg width="160.71" height="150" x="452.23" y="225.56" id="h3889921393" class="t"><rect height="40" width="160.71" class="th"></rect><text x="13" y="25" class="tht">Users</text><rect height="110" width="160.71" class="t-bg"></rect><text x="13" y="61" class="tf pk">Id<tspan x="147.71" class="ty">int</tspan></text><path d="M7,14A2,2 0 0,1 5,12A2,2 0 0,1 7,10A2,2 0 0,1 9,12A2,2 0 0,1 7,14M12.65,10C11.83,7.67 9.61,6 7, 6A6, 6 0 0, 0 1, 12A6, 6 0 0, 0 7, 18C9.61, 18 11.83, 16.33 12.65, 14H17V18H21V14H23V10H12.65Z" class="i pk" transform="translate(115.03617187500001, 48) scale(0.65)"></path><text x="13" y="86" class="tf">username<tspan x="147.71" class="ty">varchar(30)</tspan></text><text x="13" y="111" class="tf">password<tspan x="147.71" class="ty">varchar(30)</tspan></text><text x="13" y="136" class="tf">email<tspan x="147.71" class="ty">email</tspan></text></svg><svg width="172.06" height="200" x="170.12" y="5.67" id="h1123915873" class="t"><rect height="40" width="172.06" class="th"></rect><text x="13" y="25" class="tht">Events</text><rect height="160" width="172.06" class="t-bg"></rect><text x="13" y="61" class="tf pk">Id<tspan x="159.06" class="ty">int</tspan></text><path d="M7,14A2,2 0 0,1 5,12A2,2 0 0,1 7,10A2,2 0 0,1 9,12A2,2 0 0,1 7,14M12.65,10C11.83,7.67 9.61,6 7, 6A6, 6 0 0, 0 1, 12A6, 6 0 0, 0 7, 18C9.61, 18 11.83, 16.33 12.65, 14H17V18H21V14H23V10H12.65Z" class="i pk" transform="translate(126.386171875, 48) scale(0.65)"></path><text x="13" y="86" class="tf fk">user_id<tspan x="159.06" class="ty">int</tspan></text><text x="13" y="111" class="tf">name<tspan x="159.06" class="ty">varchar(30)</tspan></text><text x="13" y="136" class="tf">date<tspan x="159.06" class="ty">date</tspan></text><text x="13" y="161" class="tf">type<tspan x="159.06" class="ty">varchar(choices)</tspan></text><text x="13" y="186" class="tf">description<tspan x="159.06" class="ty">varchar(100)</tspan></text></svg><svg width="144.04" height="150" x="460.56" y="6.66" id="h2207534861" class="t"><rect height="40" width="144.04" class="th"></rect><text x="13" y="25" class="tht">Goals</text><rect height="110" width="144.04" class="t-bg"></rect><text x="13" y="61" class="tf pk">Id<tspan x="131.04" class="ty">int</tspan></text><path d="M7,14A2,2 0 0,1 5,12A2,2 0 0,1 7,10A2,2 0 0,1 9,12A2,2 0 0,1 7,14M12.65,10C11.83,7.67 9.61,6 7, 6A6, 6 0 0, 0 1, 12A6, 6 0 0, 0 7, 18C9.61, 18 11.83, 16.33 12.65, 14H17V18H21V14H23V10H12.65Z" class="i pk" transform="translate(98.36617187499999, 48) scale(0.65)"></path><text x="13" y="86" class="tf fk">user_id<tspan x="131.04" class="ty">int</tspan></text><text x="13" y="111" class="tf">name<tspan x="131.04" class="ty">varchar(100)</tspan></text><text x="13" y="136" class="tf">date<tspan x="131.04" class="ty">date</tspan></text></svg><svg width="130.04" height="175" x="717.89" y="7.22" id="h2862805392" class="t"><rect height="40" width="130.04" class="th"></rect><text x="13" y="25" class="tht">Zones</text><rect height="135" width="130.04" class="t-bg"></rect><text x="13" y="61" class="tf pk">Id<tspan x="117.03999999999999" class="ty">int</tspan></text><path d="M7,14A2,2 0 0,1 5,12A2,2 0 0,1 7,10A2,2 0 0,1 9,12A2,2 0 0,1 7,14M12.65,10C11.83,7.67 9.61,6 7, 6A6, 6 0 0, 0 1, 12A6, 6 0 0, 0 7, 18C9.61, 18 11.83, 16.33 12.65, 14H17V18H21V14H23V10H12.65Z" class="i pk" transform="translate(84.36617187499999, 48) scale(0.65)"></path><text x="13" y="86" class="tf fk">user_id<tspan x="117.03999999999999" class="ty">int</tspan></text><text x="13" y="111" class="tf">type<tspan x="117.03999999999999" class="ty">varchar(30)</tspan></text><text x="13" y="136" class="tf">minValue<tspan x="117.03999999999999" class="ty">float</tspan></text><text x="13" y="161" class="tf">maxValue<tspan x="117.03999999999999" class="ty">float</tspan></text></svg><svg width="137.37" height="175" x="463.23" y="470.33" id="h3102955663" class="t"><rect height="40" width="137.37" class="th"></rect><text x="13" y="25" class="tht">TrainingPlan</text><rect height="135" width="137.37" class="t-bg"></rect><text x="13" y="61" class="tf pk">Id<tspan x="124.37" class="ty">int</tspan></text><path d="M7,14A2,2 0 0,1 5,12A2,2 0 0,1 7,10A2,2 0 0,1 9,12A2,2 0 0,1 7,14M12.65,10C11.83,7.67 9.61,6 7, 6A6, 6 0 0, 0 1, 12A6, 6 0 0, 0 7, 18C9.61, 18 11.83, 16.33 12.65, 14H17V18H21V14H23V10H12.65Z" class="i pk" transform="translate(91.696171875, 48) scale(0.65)"></path><text x="13" y="86" class="tf fk">user_id<tspan x="124.37" class="ty">int</tspan></text><text x="13" y="111" class="tf">name<tspan x="124.37" class="ty">varchar(30)</tspan></text><text x="13" y="136" class="tf">start_date<tspan x="124.37" class="ty">date</tspan></text><text x="13" y="161" class="tf">end_date<tspan x="124.37" class="ty">date</tspan></text></svg><svg width="157.38" height="225" x="494.33" y="722.22" id="h1888719449" class="t"><rect height="40" width="157.38" class="th"></rect><text x="13" y="25" class="tht">Training</text><rect height="185" width="157.38" class="t-bg"></rect><text x="13" y="61" class="tf pk">Id<tspan x="144.38" class="ty">int</tspan></text><path d="M7,14A2,2 0 0,1 5,12A2,2 0 0,1 7,10A2,2 0 0,1 9,12A2,2 0 0,1 7,14M12.65,10C11.83,7.67 9.61,6 7, 6A6, 6 0 0, 0 1, 12A6, 6 0 0, 0 7, 18C9.61, 18 11.83, 16.33 12.65, 14H17V18H21V14H23V10H12.65Z" class="i pk" transform="translate(111.706171875, 48) scale(0.65)"></path><text x="13" y="86" class="tf">name<tspan x="144.38" class="ty">varchar(30)</tspan></text><text x="13" y="111" class="tf">date<tspan x="144.38" class="ty">date</tspan></text><text x="13" y="136" class="tf">type<tspan x="144.38" class="ty">varchar(choices)</tspan></text><text x="13" y="161" class="tf">duration<tspan x="144.38" class="ty">duration</tspan></text><text x="13" y="186" class="tf">distance<tspan x="144.38" class="ty">float</tspan></text><text x="13" y="211" class="tf">average_pace<tspan x="144.38" class="ty">float</tspan></text></svg></g></g><text class="qdbd-link" x="10" y="20">www.quickdatabasediagrams.com</text></svg>